<svg height="913.61121" viewBox="0 0 416.26452 913.61119" width="416.26453" xmlns="http://www.w3.org/2000/svg" xmlns:xlink="http://www.w3.org/1999/xlink"><clipPath id="a"><path d="m0 841.89h595.276v-841.89h-595.276z"/></clipPath><g transform="matrix(1.3333333 0 0 -1.3333333 -174.8684 998.48971)"><path d="m0 0 136.221-.514-169.633-334.125 142.902-.514-182.483-287.347 79.676 216.41-141.361-.514z" fill="#e52e22" transform="translate(302.1976 748.8673)"/><g fill="#0b060a"><path d="m0 0v88.503h-16.954v13.793h48.561v-13.793h-16.953v-88.503z" transform="translate(249.2494 584.4723)"/><g clip-path="url(#a)"><path d="m0 0c0-3.544.981-6.155 2.945-7.83 1.962-1.677 4.285-2.514 6.969-2.514 2.68 0 5.003.837 6.968 2.514 1.962 1.675 2.945 4.286 2.945 7.83v54.021c0 3.543-.983 6.154-2.945 7.831-1.965 1.674-4.288 2.514-6.968 2.514-2.684 0-5.007-.84-6.969-2.514-1.964-1.677-2.945-4.288-2.945-7.831zm-14.654 54.021c0 4.118.717 7.759 2.154 10.92s3.353 5.794 5.747 7.902c2.299 2.011 4.907 3.542 7.83 4.597 2.921 1.053 5.866 1.581 8.837 1.581 2.967 0 5.913-.528 8.836-1.581 2.92-1.055 5.578-2.586 7.974-4.597 2.298-2.108 4.166-4.741 5.603-7.902s2.154-6.802 2.154-10.92v-54.021c0-4.31-.717-7.999-2.154-11.063-1.437-3.066-3.305-5.603-5.603-7.614-2.396-2.109-5.054-3.689-7.974-4.742-2.923-1.053-5.869-1.58-8.836-1.58-2.971 0-5.916.527-8.837 1.58-2.923 1.053-5.531 2.633-7.83 4.742-2.394 2.011-4.31 4.548-5.747 7.614-1.437 3.064-2.154 6.753-2.154 11.063z" transform="translate(299.39 608.6095)"/><path d="m0 0v-78.159c0-6.992-2.204-12.836-6.608-17.528-2.205-2.299-4.814-4.119-7.83-5.459-3.018-1.341-6.538-2.012-10.561-2.012-4.694 0-8.598 1.029-11.709 3.089-3.114 2.059-5.579 4.095-7.399 6.107l11.494 9.194c1.052-1.055 2.273-1.939 3.663-2.657 1.388-.719 2.848-1.078 4.383-1.078.861 0 1.867.166 3.016.503 1.15.334 2.249.981 3.305 1.939 1.053.862 1.915 2.083 2.586 3.664.669 1.581 1.006 3.664 1.006 6.25v76.147z" transform="translate(223.6537 516.1774)"/><path d="m0 0v102.295h43.677v-13.792h-29.023v-30.028h25.287v-13.793h-25.287v-30.028h29.023v-14.654z" transform="translate(237.4457 413.882)"/><path d="m0 0h-14.654v3.305c0 3.351-.79 6.249-2.371 8.692-1.58 2.442-4.239 3.664-7.974 3.664-2.012 0-3.642-.384-4.885-1.15-1.246-.767-2.252-1.724-3.017-2.873-.768-1.246-1.293-2.659-1.58-4.239-.288-1.58-.431-3.232-.431-4.957 0-2.011.071-3.688.215-5.028.143-1.343.503-2.539 1.078-3.592.574-1.055 1.412-1.964 2.514-2.73 1.1-.767 2.609-1.533 4.526-2.299l11.206-4.453c3.256-1.246 5.891-2.708 7.902-4.382 2.012-1.677 3.592-3.617 4.742-5.819 1.052-2.299 1.771-4.91 2.155-7.83.382-2.923.574-6.25.574-9.986 0-4.31-.431-8.31-1.293-11.996-.861-3.689-2.251-6.825-4.166-9.411-2.012-2.683-4.647-4.791-7.902-6.322-3.258-1.531-7.234-2.299-11.925-2.299-3.545 0-6.85.624-9.914 1.869-3.067 1.243-5.699 2.967-7.902 5.171-2.205 2.203-3.951 4.764-5.244 7.687-1.293 2.92-1.939 6.106-1.939 9.554v5.46h14.654v-4.598c0-2.682.79-5.1 2.371-7.255 1.58-2.155 4.239-3.233 7.974-3.233 2.489 0 4.429.359 5.818 1.078 1.388.718 2.465 1.746 3.234 3.089.764 1.34 1.22 2.945 1.364 4.813.143 1.867.216 3.951.216 6.25 0 2.68-.097 4.884-.287 6.609-.194 1.724-.576 3.111-1.15 4.166-.672 1.053-1.558 1.915-2.658 2.586-1.103.669-2.563 1.388-4.382 2.155l-10.488 4.31c-6.322 2.587-10.561 6.01-12.716 10.273-2.154 4.261-3.232 9.602-3.232 16.02 0 3.83.525 7.471 1.581 10.919 1.052 3.449 2.632 6.416 4.741 8.908 2.011 2.49 4.572 4.476 7.686 5.962 3.112 1.484 6.825 2.227 11.135 2.227 3.639 0 6.968-.671 9.986-2.011 3.016-1.343 5.625-3.114 7.83-5.316 4.404-4.598 6.608-9.866 6.608-15.804z" transform="translate(338.016 486.7242)"/><path d="m0 0v88.503h-16.954v13.792h48.562v-13.792h-16.954v-88.503z" transform="translate(358.5609 413.882)"/><path d="m0 0-15.229-102.296h-13.793l-11.207 66.378h-.288l-11.062-66.378h-13.793l-15.23 102.296h15.517l7.327-64.94h.288l11.493 64.94h11.207l11.925-66.521h.287l7.04 66.521z" transform="translate(211.7533 342.2316)"/><path d="m0 0c0-3.545.98-6.155 2.945-7.83 1.962-1.678 4.285-2.515 6.968-2.515 2.681 0 5.004.837 6.968 2.515 1.963 1.675 2.945 4.285 2.945 7.83v54.021c0 3.542-.982 6.154-2.945 7.831-1.964 1.674-4.287 2.514-6.968 2.514-2.683 0-5.006-.84-6.968-2.514-1.965-1.677-2.945-4.289-2.945-7.831zm-14.655 54.021c0 4.118.718 7.758 2.155 10.919 1.437 3.162 3.352 5.794 5.747 7.903 2.299 2.011 4.907 3.542 7.83 4.597 2.921 1.053 5.866 1.581 8.836 1.581 2.968 0 5.913-.528 8.836-1.581 2.921-1.055 5.578-2.586 7.974-4.597 2.298-2.109 4.167-4.741 5.603-7.903 1.437-3.161 2.155-6.801 2.155-10.919v-54.021c0-4.311-.718-7.999-2.155-11.063-1.436-3.067-3.305-5.603-5.603-7.615-2.396-2.108-5.053-3.688-7.974-4.741-2.923-1.053-5.868-1.58-8.836-1.58-2.97 0-5.915.527-8.836 1.58-2.923 1.053-5.531 2.633-7.83 4.741-2.395 2.012-4.31 4.548-5.747 7.615-1.437 3.064-2.155 6.752-2.155 11.063z" transform="translate(233.016 264.0734)"/><path d="m0 0v-78.536c0-7.027-2.216-12.899-6.642-17.613-2.214-2.31-4.836-4.14-7.868-5.487-3.031-1.346-6.568-2.02-10.61-2.02-4.717 0-8.64 1.033-11.767 3.103-3.129 2.069-5.605 4.115-7.434 6.136l11.549 9.239c1.058-1.059 2.285-1.948 3.681-2.671 1.395-.721 2.862-1.082 4.404-1.082.866 0 1.876.167 3.032.505 1.154.336 2.259.986 3.32 1.949 1.058.867 1.924 2.093 2.599 3.682.672 1.588 1.01 3.681 1.01 6.279v76.516z" transform="translate(314.4779 342.7306)"/><path d="m0 0v102.296h14.08l22.126-61.636h.287v61.636h14.654v-102.296h-13.793l-22.413 61.493h-.287v-61.493z" transform="translate(327.6947 239.9357)"/><path d="m0 0-7.184 37.067h-.287l-7.183-37.067zm-36.205-35.775 22.844 102.296h12.212l22.844-102.296h-14.655l-4.31 21.982h-19.97l-4.311-21.982z" transform="translate(421.6547 275.7111)"/><path d="m0 0c0-.624.173-1.083.519-1.378.345-.295.754-.442 1.226-.442s.881.147 1.227.442c.345.295.518.754.518 1.378v9.51c0 .624-.173 1.084-.518 1.379-.346.295-.755.442-1.227.442s-.881-.147-1.226-.442c-.346-.295-.519-.755-.519-1.379zm-2.58 9.51c0 .725.127 1.366.38 1.923.253.556.59 1.019 1.012 1.39.404.355.864.624 1.377.81.515.185 1.034.278 1.556.278.523 0 1.041-.093 1.556-.278.514-.186.982-.455 1.403-.81.405-.371.733-.834.986-1.39.253-.557.38-1.198.38-1.923v-9.51c0-.758-.127-1.407-.38-1.947s-.581-.987-.986-1.34c-.421-.372-.889-.65-1.403-.835-.515-.186-1.033-.278-1.556-.278-.522 0-1.041.092-1.556.278-.513.185-.973.463-1.377.835-.422.353-.759.8-1.012 1.34s-.38 1.189-.38 1.947z" transform="translate(171.0951 68.0597)"/><path d="m0 0c0 .726.127 1.366.38 1.923.253.556.59 1.019 1.012 1.39.404.355.863.625 1.378.81.514.186 1.033.278 1.555.278.523 0 1.041-.092 1.556-.278.514-.185.981-.455 1.403-.81.405-.371.734-.834.987-1.39.252-.557.379-1.197.379-1.923v-.91h-2.58v.91c0 .624-.173 1.084-.518 1.379-.346.295-.755.442-1.227.442s-.882-.147-1.226-.442c-.346-.295-.519-.755-.519-1.379v-9.51c0-.624.173-1.083.519-1.378.344-.295.754-.442 1.226-.442s.881.147 1.227.442c.345.295.518.754.518 1.378v3.39h-2.049v2.276h4.629v-5.666c0-.758-.127-1.407-.379-1.947-.253-.54-.582-.986-.987-1.34-.422-.372-.889-.649-1.403-.835-.515-.185-1.033-.278-1.556-.278-.522 0-1.041.093-1.555.278-.515.186-.974.463-1.378.835-.422.354-.759.8-1.012 1.34-.253.54-.38 1.189-.38 1.947z" transform="translate(179.2894 77.5695)"/><path d="m0 0 2.276 3.566h2.732l-3.338-3.566zm-.101-14.568c0-.624.172-1.083.519-1.378.345-.295.754-.443 1.227-.443.471 0 .88.148 1.226.443s.519.754.519 1.378v9.509c0 .624-.173 1.084-.519 1.379s-.755.443-1.226.443c-.473 0-.882-.148-1.227-.443-.347-.295-.519-.755-.519-1.379zm-2.58 9.509c0 .726.127 1.367.379 1.923.253.557.591 1.02 1.013 1.391.404.354.863.624 1.378.809.514.186 1.032.279 1.556.279.522 0 1.041-.093 1.554-.279.515-.185.983-.455 1.405-.809.404-.371.733-.834.986-1.391.253-.556.379-1.197.379-1.923v-9.509c0-.758-.126-1.408-.379-1.948s-.582-.986-.986-1.339c-.422-.373-.89-.65-1.405-.835-.513-.186-1.032-.279-1.554-.279-.524 0-1.042.093-1.556.279-.515.185-.974.462-1.378.835-.422.353-.76.799-1.013 1.339-.252.54-.379 1.19-.379 1.948z" transform="translate(192.7445 82.6281)"/><path d="m0 0v18.008h2.58v-15.428h5.108v-2.58z" transform="translate(200.9896 63.8107)"/><path d="m0 0v18.008h2.479l3.895-10.85h.051v10.85h2.579v-18.008h-2.428l-3.945 10.825h-.051v-10.825z" transform="translate(210.2465 63.8107)"/><path d="m0 0c0-.624.173-1.083.519-1.378.344-.295.753-.442 1.226-.442.472 0 .881.147 1.227.442.345.295.518.754.518 1.378v9.51c0 .624-.173 1.084-.518 1.379-.346.295-.755.442-1.227.442-.473 0-.882-.147-1.226-.442-.346-.295-.519-.755-.519-1.379zm-2.58 9.51c0 .725.127 1.366.38 1.923.253.556.59 1.019 1.012 1.39.404.355.863.624 1.377.81.515.185 1.034.278 1.556.278.523 0 1.041-.093 1.556-.278.513-.186.981-.455 1.403-.81.405-.371.733-.834.986-1.39.253-.557.38-1.198.38-1.923v-9.51c0-.758-.127-1.407-.38-1.947s-.581-.987-.986-1.34c-.422-.372-.89-.65-1.403-.835-.515-.186-1.033-.278-1.556-.278-.522 0-1.041.092-1.556.278-.514.185-.973.463-1.377.835-.422.353-.759.8-1.012 1.34s-.38 1.189-.38 1.947z" transform="translate(224.0053 68.0597)"/><path d="m0 0v-6.12h1.239c.523 0 .927.075 1.214.227s.497.363.633.632c.135.253.215.565.24.936.026.371.038.784.038 1.239 0 .422-.009.822-.025 1.202-.018.379-.093.712-.228.999-.135.286-.338.506-.607.657-.27.153-.657.228-1.163.228zm-2.58-15.58v18.008h3.87c.708 0 1.332-.093 1.871-.278.54-.186 1.028-.514 1.468-.987.437-.472.741-1.023.91-1.656.168-.632.253-1.488.253-2.568 0-.808-.047-1.492-.14-2.047-.092-.557-.291-1.08-.593-1.569-.355-.591-.827-1.05-1.417-1.379-.59-.328-1.366-.493-2.327-.493h-1.315v-7.031z" transform="translate(234.931 79.3907)"/><path d="m0 0c0-.624.173-1.083.519-1.378.345-.295.754-.442 1.227-.442.472 0 .881.147 1.227.442.344.295.518.754.518 1.378v9.51c0 .624-.174 1.084-.518 1.379-.346.295-.755.442-1.227.442-.473 0-.882-.147-1.227-.442-.346-.295-.519-.755-.519-1.379zm-2.579 9.51c0 .725.126 1.366.379 1.923.253.556.59 1.019 1.012 1.39.405.355.864.624 1.378.81.514.185 1.033.278 1.556.278.522 0 1.04-.093 1.555-.278.514-.186.982-.455 1.404-.81.404-.371.733-.834.986-1.39.253-.557.379-1.198.379-1.923v-9.51c0-.758-.126-1.407-.379-1.947s-.582-.987-.986-1.34c-.422-.372-.89-.65-1.404-.835-.515-.186-1.033-.278-1.555-.278-.523 0-1.042.092-1.556.278-.514.185-.973.463-1.378.835-.422.353-.759.8-1.012 1.34s-.379 1.189-.379 1.947z" transform="translate(245.0726 68.0597)"/><path d="m0 0v18.008h2.58v-15.428h5.108v-2.58z" transform="translate(253.4193 63.8107)"/><path d="m0 0h-2.579v.582c0 .59-.14 1.1-.418 1.53s-.746.645-1.403.645c-.355 0-.641-.068-.861-.202-.218-.135-.396-.304-.531-.506-.135-.22-.228-.468-.277-.746-.051-.279-.077-.57-.077-.873 0-.354.013-.65.039-.885.025-.236.087-.447.189-.632.102-.186.249-.347.442-.481.194-.135.459-.27.797-.405l1.973-.784c.573-.219 1.037-.476 1.392-.771.353-.295.631-.637.834-1.025.185-.404.311-.864.379-1.378.067-.514.101-1.1.101-1.757 0-.759-.075-1.463-.228-2.113-.151-.649-.396-1.201-.733-1.656-.353-.473-.818-.844-1.391-1.113-.574-.27-1.273-.405-2.099-.405-.624 0-1.206.111-1.745.329-.54.219-1.003.523-1.392.911-.388.387-.695.839-.923 1.353-.227.514-.341 1.074-.341 1.682v.961h2.58v-.81c0-.472.139-.897.418-1.277.277-.379.746-.569 1.403-.569.438 0 .779.063 1.024.19.244.126.434.308.57.544.134.235.214.518.24.847.025.329.038.696.038 1.1 0 .472-.018.86-.051 1.163-.034.304-.101.548-.202.734-.118.185-.274.337-.469.455-.193.118-.451.245-.77.38l-1.847.758c-1.113.455-1.859 1.058-2.238 1.809-.38.75-.57 1.69-.57 2.82 0 .674.093 1.315.279 1.922.185.608.464 1.13.835 1.569.353.437.804.788 1.352 1.048.548.262 1.201.393 1.96.393.641 0 1.227-.118 1.758-.355.531-.236.99-.547 1.379-.935.775-.81 1.163-1.737 1.163-2.782z" transform="translate(271.1234 76.6339)"/><path d="m0 0v18.008h2.58v-8.22h.051l3.768 8.22h2.58l-3.515-7.208 4.173-10.8h-2.732l-2.933 7.992-1.392-2.604v-5.388z" transform="translate(273.0453 63.8107)"/><path d="m283.896 81.818h2.579v-18.008h-2.579z"/><path d="m0 0h-2.58v.582c0 .59-.139 1.1-.417 1.53s-.746.645-1.403.645c-.355 0-.642-.068-.861-.202-.219-.135-.396-.304-.531-.506-.135-.22-.228-.468-.278-.746-.051-.279-.076-.57-.076-.873 0-.354.013-.65.038-.885.025-.236.088-.447.19-.632.101-.186.248-.347.442-.481.194-.135.459-.27.797-.405l1.973-.784c.573-.219 1.037-.476 1.391-.771s.632-.637.835-1.025c.185-.404.311-.864.378-1.378.068-.514.102-1.1.102-1.757 0-.759-.076-1.463-.228-2.113-.151-.649-.396-1.201-.733-1.656-.354-.473-.818-.844-1.392-1.113-.573-.27-1.273-.405-2.098-.405-.624 0-1.206.111-1.745.329-.54.219-1.004.523-1.392.911-.388.387-.695.839-.923 1.353-.227.514-.342 1.074-.342 1.682v.961h2.581v-.81c0-.472.139-.897.417-1.277.278-.379.746-.569 1.404-.569.438 0 .779.063 1.024.19.244.126.434.308.569.544.134.235.215.518.24.847s.038.696.038 1.1c0 .472-.017.86-.05 1.163-.034.304-.101.548-.203.734-.118.185-.274.337-.468.455-.193.118-.451.245-.771.38l-1.846.758c-1.113.455-1.859 1.058-2.238 1.809-.38.75-.57 1.69-.57 2.82 0 .674.093 1.315.279 1.922.185.608.463 1.13.834 1.569.354.437.805.788 1.353 1.048.548.262 1.201.393 1.96.393.641 0 1.227-.118 1.758-.355.531-.236.99-.547 1.379-.935.775-.81 1.163-1.737 1.163-2.782z" transform="translate(302.0297 76.6339)"/><path d="m0 0v15.58h-2.984v2.428h8.548v-2.428h-2.984v-15.58z" transform="translate(305.6459 63.8107)"/><path d="m0 0v-5.614h1.467c.455 0 .817.062 1.088.189.269.126.48.308.632.544.134.235.227.527.278.872.051.346.076.746.076 1.201 0 .456-.025.857-.076 1.203-.051.344-.152.644-.304.897-.32.472-.928.708-1.821.708zm-2.58-15.58v18.008h4.148c3.036 0 4.552-1.762 4.552-5.285 0-1.063-.164-1.965-.493-2.707-.328-.743-.906-1.34-1.732-1.795l2.782-8.221h-2.732l-2.402 7.689h-1.543v-7.689z" transform="translate(314.9281 79.3907)"/><path d="m0 0-1.265 6.525h-.05l-1.265-6.525zm-6.373-6.298 4.021 18.008h2.15l4.021-18.008h-2.58l-.759 3.87h-3.515l-.759-3.87z" transform="translate(328.3324 70.1085)"/><path d="m0 0v-13.759c0-1.23-.388-2.259-1.163-3.085-.389-.405-.848-.725-1.379-.961s-1.15-.354-1.858-.354c-.828 0-1.514.18-2.062.544-.549.362-.982.72-1.303 1.074l2.024 1.619c.185-.185.4-.342.644-.468.244-.127.502-.189.772-.189.152 0 .329.029.531.088s.397.173.582.342c.186.151.337.367.455.644.118.278.177.646.177 1.101v13.404z" transform="translate(339.4105 81.8185)"/><path d="m0 0v18.008h2.58v-8.22h.051l3.768 8.22h2.58l-3.516-7.208 4.174-10.8h-2.732l-2.934 7.992-1.391-2.604v-5.388z" transform="translate(341.8383 63.8107)"/><path d="m0 0v18.008h2.58v-8.22h.05l3.768 8.22h2.581l-3.516-7.208 4.173-10.8h-2.732l-2.933 7.992-1.391-2.604v-5.388z" transform="translate(357.3168 63.8107)"/><path d="m0 0c0-.624.173-1.083.519-1.378.345-.295.754-.442 1.226-.442s.881.147 1.227.442c.345.295.518.754.518 1.378v9.51c0 .624-.173 1.084-.518 1.379-.346.295-.755.442-1.227.442s-.881-.147-1.226-.442c-.346-.295-.519-.755-.519-1.379zm-2.579 9.51c0 .725.126 1.366.379 1.923.253.556.59 1.019 1.012 1.39.404.355.864.624 1.378.81.514.185 1.033.278 1.555.278.523 0 1.041-.093 1.556-.278.514-.186.982-.455 1.404-.81.404-.371.733-.834.986-1.39.252-.557.379-1.198.379-1.923v-9.51c0-.758-.127-1.407-.379-1.947-.253-.54-.582-.987-.986-1.34-.422-.372-.89-.65-1.404-.835-.515-.186-1.033-.278-1.556-.278-.522 0-1.041.092-1.555.278-.514.185-.974.463-1.378.835-.422.353-.759.8-1.012 1.34s-.379 1.189-.379 1.947z" transform="translate(370.2152 68.0597)"/><path d="m0 0v-5.767h1.113c.523 0 .932.077 1.227.228.295.152.518.362.67.633.152.269.245.59.278.961.034.37.051.775.051 1.214 0 .455-.026.851-.076 1.188s-.152.624-.303.86c-.169.236-.397.409-.684.519-.286.109-.666.164-1.137.164zm0 7.233v-4.957h1.164c.859 0 1.438.215 1.732.645.295.431.443 1.058.443 1.885 0 .809-.164 1.416-.493 1.821-.329.404-.923.606-1.784.606zm-2.579-15.58v18.008h3.768c.827 0 1.531-.126 2.112-.379.582-.253 1.058-.591 1.429-1.011.371-.422.636-.907.796-1.455.161-.548.241-1.117.241-1.707v-.658c0-.489-.038-.902-.114-1.239s-.189-.632-.341-.885c-.288-.473-.725-.877-1.315-1.214.607-.287 1.053-.708 1.34-1.264.286-.557.43-1.316.43-2.277v-1.011c0-1.585-.383-2.799-1.151-3.643-.767-.843-1.994-1.265-3.679-1.265z" transform="translate(381.141 72.1573)"/><path d="m389.411 81.818h2.58v-18.008h-2.58z"/><path d="m0 0v18.008h7.688v-2.428h-5.108v-5.286h4.451v-2.428h-4.451v-5.286h5.108v-2.58z" transform="translate(394.4955 63.8107)"/><path d="m0 0v15.58h-2.984v2.428h8.547v-2.428h-2.984v-15.58z" transform="translate(405.5482 63.8107)"/></g></g></g></svg>