<svg height="414.56796" viewBox="0 0 981.80968 414.56796" width="981.80969" xmlns="http://www.w3.org/2000/svg" xmlns:xlink="http://www.w3.org/1999/xlink"><clipPath id="a"><path d="m0 595.276h841.89v-595.276h-841.89z"/></clipPath><g clip-path="url(#a)" transform="matrix(1.3333333 0 0 -1.3333333 -69.860207 620.29718)"><path d="m0 0c-2.936-4.326-5.294-7.655-7.448-11.11-.388-.622-.286-2.053.182-2.62 2.161-2.608 4.532-5.041 7.266-8.016zm229.18 16.849c-.319 8.819-2.366 16.818-7.536 24.396-2.13-9.009-4.259-18.016-6.602-27.926 5.64 1.409 9.867 2.464 14.138 3.53m-133.536-7.08c6.348.904 11.478 1.633 16.653 2.371.769 9.702-1.324 18.436-5.081 26.831-.411.074-.822.149-1.234.223-3.328-9.473-6.657-18.947-10.338-29.425m-300.187 29.065c1.273 0 1.924-.112 2.522.018 8.944 1.932 15.144 8.004 21.178 14.253.476.493.509 2.244.054 2.67-2.794 2.621-5.514 5.526-8.805 7.346-2.462 1.361-5.767 1.147-8.661 1.793-2.944.656-4.277-.986-4.512-3.405-.716-7.405-1.181-14.833-1.776-22.675m167.12 10.407c-5.319.346-6.118-.491-6.07-5.726.043-4.793-.065-9.59-.231-14.381-.07-2.032.332-3.197 2.578-3.971 5.109-1.762 17.76.976 20.938 5.164.796 1.048 1.204 3.038.789 4.254-2.587 7.575-9.294 15.047-18.004 14.66m67.268-84.935c2.142 1.436 3.462 2.096 4.505 3.056 8.202 7.543 12.467 17.345 15.308 27.798.917 3.377 1.78 7.512.647 10.546-2.321 6.211-5.657 12.14-9.269 17.735-2.047 3.168-5.473 5.447-8.276 8.125-.313-.222-.624-.443-.936-.665-.646-21.727-1.292-43.454-1.979-66.595m-133.955 65.785c5.148 1.146 8.88 2.172 12.678 2.769 4.164.656 8.111-.937 10.07-4.349 2.321-4.043 3.604-8.756 4.828-13.316.408-1.518-.53-3.553-1.235-5.187-2.921-6.771-7.669-12.044-14.119-15.541-3.737-2.027-7.87-3.315-11.738-5.119-.978-.456-2.354-1.665-2.306-2.452.3-4.876.954-9.729 1.562-15.235 2.552.725 4.718 1.062 6.637 1.939 5.92 2.704 10.504 7.053 14.187 12.354 1.418 2.041 2.855 2.699 5.1 1.126 2.16-1.514 4.508-2.759 7.129-4.335.768 24.402 1.523 48.36 2.255 71.632-9.371-2.666-18.443-5.149-27.434-7.896-1.598-.488-3.62-1.796-4.134-3.205-1.456-3.992-2.232-8.233-3.48-13.185m-61.557-17.214c-11.111-9.647-22.741-17.274-37.952-18.449 0-2.577-.172-4.9.029-7.189 1.053-12.017 2.167-24.029 3.332-36.037.405-4.182-3.237-10.103-7.857-11.893-4.077-1.58-8.839-2.251-12.61 2.378-5.77 7.083-9.505 14.533-9.503 23.958.002 6.658-1.28 13.315-2.645 20.078-1.794-6.57-3.824-13.085-5.334-19.72-4.027-17.696-7.831-35.443-11.722-53.171-.084-.38-.12-.773-.244-1.14-1.815-5.378-3.795-11.413-10.175-12.009-7.371-.691-13.034 3.722-17.078 9.702-4.332 6.406-3.529 13.485-2.269 20.666 2.956 16.854 5.703 33.745 8.476 50.632.536 3.261.071 6.252-1.885 9.221-4.727 7.18-9.088 14.601-14.148 22.819-.641-6.113-.996-11.336-1.763-16.498-2.532-17.039-5.155-34.065-7.894-51.072-.449-2.788-1.726-5.434-2.494-8.182-1.379-4.927-5.422-8.195-9.551-8.509-3.081-.235-7.233-1.217-10.627 1.767-6.398 5.627-10.763 12.577-14.367 20.06-2.976 6.179-5.417 12.613-8.197 18.89-.535 1.209-1.54 2.21-2.328 3.306-.884-1.004-2.161-1.862-2.593-3.033-4.536-12.288-9.039-24.591-13.295-36.976-.993-2.888-2.334-4.458-5.43-4.278-.512.031-1.033-.09-1.55-.146-11-1.197-14.456.103-17.961 10.677-3.814 11.509-7.147 23.421-8.607 35.412-2.758 22.652-3.946 45.493-5.948 68.241-.919 10.442-2.414 20.834-3.28 31.279-.535 6.455-.599 12.972-.461 19.453.118 5.552 2.135 10.408 7.151 13.487 5.107 3.134 9.42 2.379 12.624-2.704 6.458-10.247 10.104-21.508 11.271-33.571 1.336-13.813 2.691-27.624 4.041-41.436.051-.517-.032-1.174.25-1.515.659-.796 1.503-1.439 2.272-2.144.518.763 1.34 1.464 1.507 2.298 1.663 8.292 3.387 16.564 7.959 23.866 3.259 5.204 7.732 8.477 14.195 7.482 1.622-.25 3.514-1.227 4.541-2.478 7.695-9.37 12.464-19.855 12.582-32.315.04-4.147 1.553-8.29 2.531-12.401.118-.498 1.107-.788 1.692-1.175.421.712 1.127 1.39 1.214 2.14.436 3.739.732 7.493 1.038 11.245 1.388 17.076 3.427 34.135 3.889 51.237.267 9.906 1.221 19.355 5.525 28.209 1.238 2.548 3.851 5.856 6.146 6.122 3.265.378 7.513-.383 9.746-3.886 3.541-5.555 7.691-10.944 9.961-17.011 1.571-4.2.808-9.459.355-14.175-.387-4.035.115-6.578 3.743-9.408 8.999-7.016 13.04-17.492 16.991-27.828.834-2.182 1.385-4.507 2.49-6.537.6-1.103 2.035-2.25 3.198-2.37.749-.077 2.118 1.532 2.473 2.625 2.52 7.758 4.702 15.628 7.3 23.358 1.411 4.194 3.461 8.234 7.872 10.124 1.91.818 4.073 1.046 6.639 1.667-.813 2.35-1.49 5.226-2.763 7.808-3.489 7.077-1.794 19.701 3.7 25.075 4.733 4.63 10.831 6.412 17.036 8.009 8.869 2.282 17.223.267 25.93-1.697 11.112-2.507 18.359-10.045 26.828-17.316.119 1.498.243 2.571.283 3.647.298 8.11 8.096 18.144 16.166 19.653 2.674.5 6.405-.495 8.569-2.191 7.144-5.597 10.088-13.422 8.926-22.386-.34-2.628-1.88-5.605-3.81-7.425-5.574-5.258-11.659-9.936-19.955-8.834.892-6.48 1.767-12.84 2.681-19.481 3.986 1.348 6.116-1.318 8.062-4.055 2.746-3.861 5.316-7.846 7.702-11.393 2.614 9.909 5.218 20.141 8.048 30.31.934 3.353 2.439 6.548 3.704 9.807.873 2.249.86 3.928-1.991 4.817-.998.311-1.629 1.798-2.539 2.879 1.045.572 1.344.851 1.467.787 8.173-4.211 15.641.49 23.329 1.93 4.32.809 8.49 2.399 12.799 3.292 2.074.43 4.313.078 6.478.048 3.619-.049 7.238-.144 10.858-.181 2.986-.031 5.973-.007 9.557-.007 1.373 1.494 3.067 3.871 5.282 5.565 1.571 1.201 3.854 2.092 5.807 2.07 10.652-.12 20.327-3.739 29.532-8.864 8.03-4.471 14.596-10.287 18.118-19.038.48-1.191 1.13-2.313 1.717-3.459.05-.098.214-.136 1.472-.883-.395 3.768-.59 6.804-1.06 9.797-.438 2.794-1.539 5.522-1.689 8.315-.267 4.922 2.426 8.184 7.311 8.09 4.03-.077 8.353-.798 11.995-2.449 18.001-8.159 32.316-20.959 43.998-36.72 3.974-5.36 7.273-11.221 11.197-17.348 1.194 3.325 2.326 6.515 3.483 9.695 5.102 14.027 10.619 27.858 19.039 40.318.437.645.867 1.295 1.317 1.931 2.541 3.597 4.681 7.995 10.422 4.889.593-.321 1.579-.16 2.306.045 6.657 1.882 10.603-2.071 14.392-6.528 11.421-13.433 17.381-29.418 20.91-46.316 2.272-10.88 3.36-22.009 4.969-33.028.22-1.509.383-3.026 1.5-4.51 0 6.75-.121 13.503.026 20.25.173 7.973-.304 25.488 2.124 42.145 1.852 12.698-.697 20.895 1.247 28.211 3.692 13.893 5.058 26.128 5.166 41.954.011 1.597-1.137 3.202-1.747 4.803-1.703-.655-3.606-1.017-5.071-2.02-4.154-2.844-7.791-6.687-12.273-8.728-3.946-1.797-8.749-1.743-13.188-2.409-1.922-.288-3.878-.373-5.822-.475-7.048-.37-11.285-4.07-12.668-10.911-.616-3.042-2.058-4.265-5.266-4.307-2.187-.029-4.345-1.274-6.539-1.89-1.597-.449-3.229-1.069-4.849-1.082-9.741-.082-19.493-.239-29.219.167-2.526.104-5.677 1.517-7.312 3.397-3.734 4.296-8.169 5.605-13.229 4.23-6.105-1.659-12.137-3.729-17.994-6.126-13.328-5.454-18.051-4.501-26.547 7.176-2.725 3.743-5.483 8.268-5.962 12.681-1.249 11.505 3.99 17.683 15.525 18.926 8.365.902 9.244-3.628 25.271 1.076 9.022 2.648 43.505 9.011 55.945 4.742 12.439-4.269 37.182 5.794 53.427 6.837 4.403.284 10.942-3.924 15.315-3.37 1.056.135 2.814 1.363 2.825 2.109.178 12.175.126 24.353.126 36.691-4.304.27-7.934.497-11.565.725-.03.559-.059 1.119-.088 1.678 2.369.243 4.735.661 7.106.697 9.745.148 9.978.129 10.948-9.282 1.889-18.323 1.98-48.53 5.183-55.019s2.939-40.601 1.881-48.005 4.391-18.452 4.76-24.328c.413-6.587-.257-20.963 1.851-29.665s2.564-16.317 2.321-30.017c-.263-14.776-.491-29.489-1.965-44.188-.166-1.662.249-3.387.038-5.038-.584-4.564 2.439-6.003 6.485-7.589-.162 3.071-.055 5.742-.48 8.325-3.176 19.304.212 38.318 2.742 57.311 2.328 17.482 5.336 34.92 11.386 51.569 3.21 8.834 7.521 17.265 11.255 25.914.902 2.09 2.101 2.436 4.274 1.947 1.825-.41 3.938-.319 5.754.175 3.274.889 5.601-.056 8.049-2.28 10.18-9.252 16.389-20.966 21.127-33.578 6.976-18.574 10.367-37.967 12.733-57.574.12-.996.327-1.98.632-3.796 1.244 5.047 2.084 9.33 3.357 13.48 5.921 19.284 17.248 34.918 32.633 47.752 7.015 5.851 19.156 6.322 26.583 1.067 5.574-3.943 7.562-11.085 3.708-16.778-3.447-5.093-8.092-9.36-12.01-14.153-6.043-7.391-12.685-14.455-17.606-22.55-3.604-5.927-5.493-13.148-6.979-20.045-1.692-7.857 2.607-12.379 10.619-12.592 2.725-.073 5.455.038 8.182.005 7.027-.087 9.921-3.289 8.169-10.177-2.974-11.69-9.57-21.168-19.354-28.271-1.837-1.334-4.121-2.139-6.3-2.897-4.303-1.497-8.404-.652-12.387 1.376-3.426 1.745-7.271 2.88-10.286 5.144-1.962 1.474-2.767 4.489-4.321 7.219-.326-.917-.642-1.619-.829-2.355-1.767-6.955-5.216-10.367-11.299-11.139-5.447-.692-12.31 2.361-14.511 7.857-2.072 5.177-3.141 10.904-3.745 16.487-1.029 9.51-1.349 19.097-1.986 28.959-6.359-2.179-12.286-4.21-18.212-6.242-.491-.169-.965-.391-1.465-.523-8.731-2.288-8.732-2.286-8.731-11.095 0-4.547.378-9.134-.112-13.629-.426-3.902-1.213-8.02-2.995-11.442-1.54-2.959-.866-4.478.909-6.651 8.755-10.718 13.48-23.221 15.589-36.75.955-6.127-2.161-8.963-8.235-7.421-10.899 2.765-21.709 5.88-32.566 8.812-5.889 1.591-9.46 6.147-13.251 10.362-7.405 8.23-12.551 17.7-15.458 28.585-.553-2.593-1.179-5.172-1.647-7.78-2.532-14.109-18.351-15.615-26.921-8.061-5.316 4.685-6.709 10.956-6.654 17.618.085 10.389.426 20.775.646 31.164.035 1.676.005 3.353.005 5.538-1.887-.478-3.56-.957-5.256-1.322-7.978-1.718-15.925-3.64-23.966-4.989-3.322-.557-4.661-1.648-4.866-5.067-.443-7.381-1.167-14.753-2.039-22.098-.936-7.881-5.303-13.293-12.592-16.424-2.38-1.023-4.277-.772-5.679 1.53-1.743 2.86-3.465 5.731-5.308 8.782-1.342-1.612-2.602-3.538-4.249-5.039-9.158-8.347-19.552-12.115-31.851-8.033-2.795.928-4.926 1.226-6.913-1.854-2.083-3.229-8.778-2.459-11.504.813-9.621 11.549-19.128 23.198-28.992 34.537-4.826 5.548-10.305 10.532-15.584 15.674-.899.875-2.282 1.253-3.441 1.86-.409-1.267-1.189-2.543-1.166-3.803.155-8.304.472-16.606.759-24.908.179-5.21-1.041-10.047-3.867-14.432-2.65-4.111-6.501-4.82-10.472-1.981-6.656 4.759-9.728 11.54-10.896 19.388-.072.483-.17.962-.368 2.071-.836-1.039-1.413-1.612-1.824-2.287-4.457-7.305-11.738-11.339-19.237-13.705-5.302-1.673-11.817-.938-17.455.279-6.229 1.343-9.826 6.916-13.095 12.097-6.238 9.884-10.766 20.399-10.972 32.358-.015.879-.212 1.755-.325 2.633-.329.025-.657.05-.985.075-.188-2.795-.459-5.586-.536-8.383-.061-2.174.223-4.358.177-6.534-.244-11.21-1.078-22.442-.605-33.62.246-5.821-2.493-9.163-6.019-12.608-.496-.484-1.413-.761-2.133-.757-9.185.047-17.614 1.898-22.933 10.396-.771 1.233-1.303 2.866-1.285 4.304.204 15.964.54 31.926.835 47.888.14 7.58.125 15.167.464 22.738.146 3.242 1.013 6.452 1.552 9.677" fill="#ed153d" transform="translate(456.0557 267.3274)"/><path d="m0 0c1.092-10.743-7.121-13.396-18.668-12.271-8.526.832-14.978 8.934-15.592 18.35-.286 4.393-.299 8.832-.043 13.227.508 8.723 8.123 14.084 16.449 11.415 8.78-2.815 14.706-8.552 16.237-18.005.682-4.216 1.087-8.476 1.617-12.716" fill="#ed153d" transform="translate(772.1133 355.6174)"/><path d="m0 0c-8.574 1.187-16.195-1.566-23.992-4.928-5.426-2.34-11.681-3.215-17.654-3.741-16.786-1.477-33.642-2.181-50.418-3.754-5.028-.472-10.003-2.488-14.783-4.357-5.867-2.294-10.093-1.711-13.885 3.031-.381.477.228 2.647.731 2.79 4.419 1.256 8.875 2.88 13.399 3.178 21.356 1.405 42.763 2.099 64.093 3.782 6.286.497 12.488 3.106 18.543 5.268 10.982 3.92 22.374 5.313 33.866 6.356 3.152.285 3.059-2.031 3.474-4.036.501-2.422-.98-2.927-2.865-3.035-3.493-.2-6.988-.37-10.509-.554" fill="#ed153d" transform="translate(576.1924 454.0759)"/><g fill="#fff"><path d="m0 0c1.248 4.952 2.024 9.192 3.48 13.185.515 1.408 2.537 2.716 4.135 3.205 8.99 2.747 18.062 5.23 27.433 7.896-.732-23.272-1.486-47.23-2.255-71.632-2.621 1.576-4.969 2.821-7.128 4.335-2.246 1.573-3.683.915-5.101-1.126-3.683-5.301-8.267-9.651-14.187-12.355-1.919-.877-4.085-1.214-6.636-1.938-.608 5.506-1.262 10.359-1.563 15.235-.048.786 1.328 1.995 2.306 2.451 3.869 1.805 8.001 3.093 11.739 5.119 6.45 3.498 11.197 8.771 14.118 15.542.705 1.633 1.643 3.668 1.236 5.187-1.225 4.56-2.508 9.272-4.829 13.315-1.958 3.413-5.905 5.005-10.069 4.35-3.799-.598-7.531-1.623-12.679-2.769" transform="translate(351.9453 297.4187)"/><path d="m0 0c.687 23.142 1.333 44.868 1.979 66.595l.936.666c2.804-2.679 6.23-4.957 8.276-8.125 3.613-5.596 6.949-11.525 9.269-17.736 1.133-3.034.27-7.169-.647-10.545-2.84-10.454-7.106-20.255-15.308-27.798-1.043-.96-2.362-1.62-4.505-3.057" transform="translate(485.9004 231.633)"/><path d="m0 0c8.71.387 15.417-7.085 18.004-14.66.415-1.215.007-3.205-.789-4.254-3.178-4.188-15.829-6.925-20.939-5.164-2.245.775-2.647 1.939-2.577 3.971.166 4.791.274 9.588.231 14.381-.048 5.235.751 6.072 6.07 5.726" transform="translate(418.6328 316.5681)"/><path d="m0 0c.595 7.841 1.061 15.27 1.777 22.675.234 2.418 1.568 4.061 4.511 3.404 2.894-.645 6.199-.431 8.661-1.792 3.292-1.821 6.011-4.725 8.805-7.347.455-.426.422-2.176-.054-2.669-6.034-6.25-12.233-12.322-21.178-14.254-.598-.129-1.248-.017-2.522-.017" transform="translate(251.5122 306.1618)"/><path d="m0 0c3.682 10.479 7.011 19.952 10.339 29.426.411-.075.822-.15 1.233-.224 3.757-8.395 5.851-17.129 5.081-26.831-5.174-.737-10.304-1.467-16.653-2.371" transform="translate(551.6992 277.0959)"/><path d="m0 0c-4.271-1.065-8.498-2.121-14.138-3.529 2.343 9.909 4.472 18.917 6.602 27.925 5.171-7.578 7.218-15.577 7.536-24.396" transform="translate(685.2354 284.176)"/><path d="m0 0v-21.746c-2.734 2.975-5.105 5.408-7.266 8.016-.468.567-.57 1.998-.182 2.62 2.154 3.455 4.512 6.784 7.448 11.11" transform="translate(456.0557 267.3274)"/></g></g></svg>